<svg width="25" height="24" viewBox="0 0 25 24" fill="none" xmlns="http://www.w3.org/2000/svg">
<path fill-rule="evenodd" clip-rule="evenodd" d="M16.9138 21.4998H8.56594C5.49958 21.4998 3.14718 20.3922 3.81537 15.9346L4.5934 9.89339C5.0053 7.66913 6.42406 6.81787 7.66892 6.81787H17.8474C19.1106 6.81787 20.4469 7.7332 20.9229 9.89339L21.701 15.9346C22.2685 19.8888 19.9801 21.4998 16.9138 21.4998Z" stroke="#9E9E9E" stroke-width="1.5" stroke-linecap="round" stroke-linejoin="round"/>
<path d="M17.051 6.59824C17.051 4.21216 15.1167 2.27787 12.7306 2.27787V2.27787C11.5816 2.273 10.478 2.72603 9.66384 3.53679C8.84965 4.34754 8.39196 5.44923 8.39197 6.59824V6.59824" stroke="#9E9E9E" stroke-width="1.5" stroke-linecap="round" stroke-linejoin="round"/>
<path d="M15.6964 11.1017H15.6506" stroke="#9E9E9E" stroke-width="1.5" stroke-linecap="round" stroke-linejoin="round"/>
<path d="M9.86568 11.1017H9.81991" stroke="#9E9E9E" stroke-width="1.5" stroke-linecap="round" stroke-linejoin="round"/>
</svg>
